<?xml version="1.0" encoding="UTF-8"?>
<svg id="b" data-name="Layer 2" xmlns="http://www.w3.org/2000/svg" viewBox="0 0 425.23 67.92">
  <defs>
    <style>
      .d {
        stroke-width: 0px;
      }

      .e {
        stroke: #2563eb;
        stroke-linecap: round;
        stroke-miterlimit: 10;
        stroke-width: 25px;
      }
    </style>
  </defs>
  <g id="c" data-name="Layer 1">
    <g>
      <g>
        <path class="d" d="m107.8,15.53c4.04,0,7.92.62,11.65,1.86,3.73,1.24,6.88,3.02,9.45,5.35,2.57,2.33,4.47,5.05,5.69,8.15,1.22,3.11,1.83,6.45,1.83,10.03s-.55,6.8-1.64,9.94c-1.09,3.14-2.94,6.09-5.54,8.84-2.6,2.75-5.92,4.81-9.94,6.18-4.02,1.37-8.28,2.05-12.77,2.05-4.13,0-8.11-.6-11.91-1.81s-6.99-2.96-9.55-5.27c-2.56-2.31-4.48-5.08-5.76-8.3-1.29-3.22-1.93-6.61-1.93-10.16s.63-6.93,1.88-10.16c1.25-3.22,3.24-6.12,5.96-8.69,2.72-2.57,6.08-4.55,10.08-5.93,4-1.38,8.17-2.08,12.5-2.08Zm-.34,14.36c-2.08,0-3.94.54-5.57,1.61-1.63,1.07-2.86,2.65-3.69,4.71-.83,2.07-1.25,4.32-1.25,6.76,0,3.58.9,6.32,2.69,8.23,1.79,1.9,4.04,2.86,6.74,2.86,2.05,0,3.89-.54,5.52-1.64,1.63-1.09,2.86-2.7,3.69-4.83.83-2.13,1.25-4.42,1.25-6.86,0-2.02-.33-3.84-.98-5.47-.65-1.63-1.72-2.93-3.2-3.91-1.48-.98-3.21-1.46-5.2-1.46Z"/>
        <path class="d" d="m179.97,52.29c-.59,2.73-1.09,5.4-1.51,8.01l-.35,1.96c-.44,2.45-2.36,4.38-4.8,4.83-1.35.25-2.5.43-3.46.53-1.81.2-3.56.29-5.25.29-2.77,0-5.22-.24-7.37-.71-2.15-.47-3.94-1.33-5.37-2.59-1.43-1.25-2.41-2.69-2.93-4.32-.52-1.63-.78-3.35-.78-5.18,0-.33.02-.9.05-1.73.03-.83.15-2.68.34-5.54l1.07-16.89h-1.28c-3.42,0-6.14-2.85-5.99-6.26.03-.83.07-1.71.1-2.63l.15-4.54h8.09c.19-1.5.44-4.77.73-9.81l8.36-1.71c1.53-.29,4.79-1.04,9.78-2.25-.23,4.26-.39,8.85-.49,13.77h4.91c3.39,0,6.11,2.81,6,6.2s-.17,5.8-.17,7.22h-11.23l-.59,12.21c-.07,1.82-.1,3-.1,3.52,0,1.56.17,2.86.51,3.91.34,1.04.94,1.79,1.81,2.25.86.46,1.82.68,2.86.68.78,0,1.6-.06,2.44-.17.85-.11,2.34-.46,4.49-1.05Z"/>
        <path class="d" d="m234.56,51.9c-.4,1.86-1.16,6.25-2.28,13.15-.1.6-.57,1.09-1.17,1.21-3.34.64-6.18,1.07-8.52,1.29-2.57.24-5.18.37-7.81.37-3.87,0-7.44-.27-10.69-.8-3.26-.54-6.06-1.49-8.42-2.85-2.36-1.37-4.34-3.07-5.93-5.1-1.6-2.03-2.81-4.45-3.64-7.24s-1.25-5.67-1.25-8.63c0-4.16.83-8.24,2.49-12.22,1.66-3.98,3.8-7.1,6.42-9.34,2.62-2.24,5.64-3.84,9.06-4.78,3.42-.94,6.92-1.42,10.5-1.42s7.25.43,10.62,1.29c3.37.86,6.23,2.37,8.57,4.52,2.34,2.15,4.01,4.57,5.01,7.28.99,2.7,1.49,5.62,1.49,8.74,0,1.86-.21,3.92-.63,6.2l-32.85.05c-.78,0-1.42.62-1.42,1.4,0,0,0,0,0,.01,0,3.5,1.25,6.08,3.76,7.73,2.51,1.65,5.57,2.48,9.18,2.48,2.15,0,4.6-.25,7.35-.76,2.75-.5,6.14-1.36,10.18-2.56Zm-30.03-15.77h14.76c.78,0,1.4-.63,1.4-1.4h0c0-1.7-.3-3.15-.9-4.36-.6-1.2-1.46-2.08-2.59-2.64-1.12-.55-2.38-.83-3.78-.83-.98,0-1.92.15-2.83.46-.91.31-1.73.77-2.47,1.37-.73.6-1.34,1.29-1.83,2.08s-.85,1.54-1.07,2.27c-.23.73-.46,1.75-.68,3.05Z"/>
        <path class="d" d="m245.3,66.65l.87-10.51,1.89-36.5.37-13.73c.09-3.27,2.79-5.87,6.06-5.84,1.73.02,3.16.02,4.32.02,2.96,0,6.24-.03,9.83-.1l-1.11,14.99-1.79,36.91-.23,8.86c-.09,3.26-2.77,5.86-6.03,5.84-1.24,0-2.43,0-3.56,0l-10.61.05Z"/>
        <path class="d" d="m287.32,28.8c-2.84.87-5.6-1.48-5.21-4.42,0-.01,0-.02,0-.04.16-1.22.42-3.13.78-5.74,9.38-2.05,17.43-3.08,24.17-3.08,3.84,0,7.36.43,10.55,1.29,3.19.86,5.68,2.25,7.47,4.17,1.79,1.92,2.69,4.67,2.69,8.25,0,1.82-.24,5.92-.73,12.3-.42,5.53-.76,12.56-1.01,21.08-.07,2.22-1.9,3.98-4.13,3.95-1.84-.02-3.68-.03-5.51-.03-3.06,0-6.32.03-9.77.1.44-3.58.94-10.97,1.48-22.17-1.23.59-2.2,1.01-2.9,1.27-.7.26-1.92.65-3.68,1.17-1.75.52-3.12.96-4.12,1.32-.99.36-1.85.81-2.58,1.37-.73.55-1.25,1.12-1.56,1.71s-.46,1.24-.46,1.95c0,1.11.44,2.05,1.32,2.83s2.28,1.17,4.2,1.17c.68,0,1.42-.06,2.2-.17.78-.11,1.86-.4,3.22-.85-.77,2.04-1.65,4.84-2.66,8.41-.45,1.59-1.81,2.77-3.44,2.95-1.81.2-3.55.31-5.22.31-4.04,0-7.4-.56-10.08-1.68s-4.75-2.94-6.2-5.44c-1.45-2.51-2.17-5.01-2.17-7.52,0-1.53.27-3.03.8-4.49s1.38-2.9,2.51-4.3c1.14-1.4,2.47-2.6,4-3.59,1.53-.99,3.62-1.93,6.27-2.81s6.01-1.71,10.08-2.49c1.69-.33,3.25-.68,4.66-1.05,1.42-.37,2.42-.7,3.03-.98.6-.28,1.09-.6,1.46-.98.37-.37.64-.76.81-1.17.16-.41.24-.84.24-1.29,0-1.24-.52-2.19-1.56-2.86-1.04-.67-2.57-1-4.59-1-4.09,0-8.88.84-14.37,2.53Z"/>
        <path class="d" d="m340.97,66.61c-2.64-.48-4.63-2.68-4.85-5.36,0-.02,0-.03,0-.05-.13-1.58-.34-3.75-.63-6.52l-.39-3.52c3.15,1.24,5.86,2.16,8.14,2.76,2.27.6,4.37.9,6.28.9,1.59,0,2.88-.15,3.87-.44s1.71-.72,2.17-1.27c.46-.55.68-1.12.68-1.71,0-.52-.17-1.03-.51-1.54-.34-.5-1.11-1.2-2.31-2.08-2.66-1.95-5.01-3.73-7.04-5.32-2.03-1.59-3.56-3.01-4.58-4.25-1.02-1.24-1.8-2.57-2.34-4-.54-1.43-.8-2.91-.8-4.44,0-2.7.77-5.22,2.32-7.57,1.54-2.34,3.82-4.04,6.84-5.1,3.01-1.06,6.68-1.59,11.01-1.59,3.43,0,7.59.34,12.47,1.01,2.83.39,4.98,2.75,5.15,5.6l.5,8.82c-3.94-1.56-7.73-2.34-11.38-2.34-2.57,0-4.44.26-5.59.79-1.16.53-1.73,1.34-1.73,2.43,0,.36.07.7.2,1.03.13.33.37.67.71,1.03.34.36.76.72,1.27,1.1.5.37,1.73,1.25,3.69,2.61s3.48,2.49,4.59,3.37c1.82,1.43,3.21,2.76,4.18,3.98.96,1.22,1.69,2.52,2.2,3.91.5,1.38.76,2.84.76,4.37,0,2.31-.56,4.44-1.68,6.37-1.12,1.94-2.82,3.56-5.08,4.86-2.26,1.3-4.71,2.21-7.35,2.71-2.64.5-5.35.76-8.15.76-1.89,0-4.26-.16-7.1-.49-1.67-.19-3.49-.46-5.48-.82Z"/>
        <path class="d" d="m389.26,66.61c-2.64-.48-4.63-2.68-4.85-5.36,0-.02,0-.03,0-.05-.13-1.58-.34-3.75-.63-6.52l-.39-3.52c3.15,1.24,5.86,2.16,8.14,2.76,2.27.6,4.37.9,6.28.9,1.59,0,2.88-.15,3.87-.44s1.71-.72,2.17-1.27c.46-.55.68-1.12.68-1.71,0-.52-.17-1.03-.51-1.54-.34-.5-1.11-1.2-2.31-2.08-2.66-1.95-5.01-3.73-7.04-5.32-2.03-1.59-3.56-3.01-4.58-4.25-1.02-1.24-1.8-2.57-2.34-4-.54-1.43-.8-2.91-.8-4.44,0-2.7.77-5.22,2.32-7.57,1.54-2.34,3.82-4.04,6.84-5.1,3.01-1.06,6.68-1.59,11.01-1.59,3.43,0,7.59.34,12.47,1.01,2.83.39,4.98,2.75,5.15,5.6l.5,8.82c-3.94-1.56-7.73-2.34-11.38-2.34-2.57,0-4.44.26-5.59.79-1.16.53-1.73,1.34-1.73,2.43,0,.36.06.7.2,1.03.13.33.37.67.71,1.03.34.36.76.72,1.27,1.1.5.37,1.73,1.25,3.69,2.61s3.48,2.49,4.59,3.37c1.82,1.43,3.21,2.76,4.18,3.98.96,1.22,1.69,2.52,2.2,3.91.5,1.38.76,2.84.76,4.37,0,2.31-.56,4.44-1.68,6.37-1.12,1.94-2.82,3.56-5.08,4.86-2.26,1.3-4.71,2.21-7.35,2.71-2.64.5-5.36.76-8.15.76-1.89,0-4.26-.16-7.1-.49-1.67-.19-3.49-.46-5.48-.82Z"/>
      </g>
      <g>
        <line class="e" x1="12.5" y1="12.85" x2="54.5" y2="53.85"/>
        <circle class="e" cx="54" cy="13.35" r=".5"/>
        <circle class="e" cx="13" cy="53.35" r=".5"/>
      </g>
    </g>
  </g>
</svg>